<?xml version="1.0" encoding="utf-8"?>
<!-- Designed by Vexels.com - 2019 All Rights Reserved - https://vexels.com/terms-and-conditions/  -->
<svg version="1.1" id="Layer_1" xmlns="http://www.w3.org/2000/svg" xmlns:xlink="http://www.w3.org/1999/xlink" x="0px" y="0px"
	 viewBox="0 0 1200 1200" enable-background="new 0 0 1200 1200" xml:space="preserve">
<path fill="#603D2F" d="M412.3,820.423c0,0,54.231-47.095,49.949-119.878c-24.854-29.97-35.678-32.824-41.386-161.264
	c-13.914,0-42.814-12.487-48.165-86.341s1.07-79.205,7.492-84.557c-9.486-23.547-20.693-66.004-17.839-80.989
	c2.854-14.985-12.844-17.125-4.281-26.402s15.524-11.417-2.585-21.407c-18.109-9.99-20.963-24.975-20.963-29.969
	s0,17.839,28.542,27.115c28.542,9.276,13.558-32.824,0-24.261c-13.558,8.563,0.714-8.547,11.417-3.56
	c-2.141-9.284-17.125-13.565-17.125-30.691c4.281,5.708,5.708,15.698,16.412,17.125c7.136-9.99-0.714-19.266,10.703-28.542
	c11.417-9.276,0-24.261-5.708-22.834c-5.708,1.427,4.281-9.276,14.271,7.136c9.99,16.412,5.708-3.568,29.969-12.131
	s71.124-42.1,39.487-40.673c4.041-4.281,14.744-2.229,21.166-0.044c6.422,2.185,19.266-25.644,27.829-28.498
	s13.558-14.985,55.658-10.703c42.1,4.281,62.08-17.839,104.18-4.995c42.1,12.844,40.673,9.99,67.788,28.542
	s29.969,6.422,52.803,17.839s42.1,51.376,51.376,45.668c9.276-5.708,10.703-20.693,4.281-33.537
	c9.276,12.844,6.454,26.402,3.941,39.246c2.461,8.563,0.341,22.12,16.039,22.12c15.698,0,22.12,19.98,22.12,32.824
	c-4.995-10.703-15.698-23.547-17.125-16.412c-1.427,7.136-4.995,46.381,12.13,37.819s11.417-2.854-1.427,11.417
	c-12.844,14.271-21.407,49.949-6.422,41.386c14.985-8.563,14.271-14.271,14.271-14.271s-1.427,16.412-17.839,23.547
	c-16.412,7.136,0.714,30.683,16.412,12.131s9.276-19.266,9.276-19.266s6.422,12.844-17.125,29.97
	c-23.547,17.125-2.141,18.553,9.99,7.136c12.13-11.417-5.708,17.125-22.834,14.271s2.854,15.698-1.427,31.397
	c-4.281,15.698,0.714,31.397-3.568,36.392c-4.281,4.995,23.547,68.502-22.834,122.019c-22.12,20.872-23.547,27.115-38.532,26.402
	s8.563,65.647-13.558,114.169c-9.276,24.261-18.553,28.542-18.553,28.542s-14.271,76.351,48.522,114.169
	c62.793,37.819,279.749,109.71,296.875,342.421c-115.597,0-1031.807-5.086-1031.807-5.086S89.058,901.055,412.3,820.423z"/>
</svg>
